# xmcd CD database file
#
# Track frame offsets:
#	150
#	14647
#	32587
#	46547
#	60233
#	75452
#	92139
#
# Disc length: 1433 seconds
#
# Revision: 1
# Processed by: cddbd v1.5.2PL0 Copyright (c) Steve Scherf et al.
# Submitted via: CDex 1.70beta2
#
DISCID=43059707
DTITLE=compilation - Jazzmag n°607 - 10-2009 Body and Soul
DYEAR=2009
DGENRE=Jazz
TTITLE0=Paul Witheman and his orchestra
TTITLE1=Chu berry and his little jazz ensemble
TTITLE2=Coleman Hawkins and his orchestra
TTITLE3=Billie Holiday and her orchestra
TTITLE4=Eddie Jefferson with Walt Harper quintet
TTITLE5=Jimmy Raney
TTITLE6=Anita O'Day
EXTD=YEAR: 2009
EXTT0=
EXTT1=
EXTT2=
EXTT3=
EXTT4=
EXTT5=
EXTT6=
PLAYORDER=
